HIERARCHY
ROOT ui
{
	 OFFSET 0 0 0
	 CHANNELS 3 XPosition YPosition Z Position
	 EndSite
	 {
	 OFFSET 0 -1 0
	 }
}
ROOT li
{
	 OFFSET 0 0 0
	 CHANNELS 3 XPosition YPosition Z Position
	 EndSite
	 {
	 OFFSET 0 -1 0
	 }
}
ROOT ul
{
	 OFFSET 0 0 0
	 CHANNELS 3 XPosition YPosition Z Position
	 EndSite
	 {
	 OFFSET 0 -1 0
	 }
}
ROOT ll
{
	 OFFSET 0 0 0
	 CHANNELS 3 XPosition YPosition Z Position
	 EndSite
	 {
	 OFFSET 0 -1 0
	 }
}
ROOT tt
{
	 OFFSET 0 0 0
	 CHANNELS 3 XPosition YPosition Z Position
	 EndSite
	 {
	 OFFSET 0 -1 0
	 }
}
ROOT tb
{
	 OFFSET 0 0 0
	 CHANNELS 3 XPosition YPosition Z Position
	 EndSite
	 {
	 OFFSET 0 -1 0
	 }
}
ROOT td
{
	 OFFSET 0 0 0
	 CHANNELS 3 XPosition YPosition Z Position
	 EndSite
	 {
	 OFFSET 0 -1 0
	 }
}
ROOT v
{
	 OFFSET 0 0 0
	 CHANNELS 3 XPosition YPosition Z Position
	 EndSite
	 {
	 OFFSET 0 -1 0
	 }
}
ROOT bn
{
	 OFFSET 0 0 0
	 CHANNELS 3 XPosition YPosition Z Position
	 EndSite
	 {
	 OFFSET 0 -1 0
	 }
}
MOTION
Frames: 27
Frame Time: 0.002
0.005683330059051514	0.0021099770069122315	0		0.4402317504882812	-2.42147998046875	0		-0.879344482421875	0.34564273071289064	0		-0.6671205444335937	-2.76245947265625	0		1.5420870361328125	-0.47403662109375	0		3.19406396484375	-0.3964731750488281	0		4.36127294921875	-0.25478553771972656	0		5.84800830078125	0.3403367614746094	0		-0.09921611785888672	5.95359228515625	0		
0.0017634320259094238	-0.0014744939804077148	0		0.4663404846191406	-2.42369189453125	0		-0.8742862548828125	0.34087313842773437	0		-0.6951678466796875	-2.7715400390625	0		1.5243358154296875	-0.4693349914550781	0		3.202015380859375	-0.4063153076171875	0		4.3484375	-0.2541949462890625	0		5.8397978515625	0.32282290649414064	0		-0.08383199310302734	5.96360888671875	0		
-8.327929973602295E-4	0.007923277854919433	0		0.4504765625	-2.42702001953125	0		-0.9470342407226563	0.34373251342773437	0		-0.6959514770507812	-2.771182373046875	0		1.5204896240234376	-0.4719133605957031	0		3.167572021484375	-0.389250732421875	0		4.35965087890625	-0.2540860900878906	0		5.8342021484375	0.3322847900390625	0		-0.08461795043945312	5.963966796875	0		
0.008226481437683106	-0.0019225950241088868	0		0.47160443115234374	-2.434115234375	0		-0.8758019409179687	0.3415883178710937	0		-0.6909649047851563	-2.7849462890625	0		1.5166785888671874	-0.4754840087890625	0		3.16546826171875	-0.4068542175292969	0		4.34382080078125	-0.25839617919921876	0		5.8341162109375	0.3156488952636719	0		-0.08439019775390624	5.96330615234375	0		
0.004490005016326904	-0.004500265121459961	0		0.469884765625	-2.436731201171875	0		-0.8815404052734375	0.3390460815429687	0		-0.6058052368164063	-2.79438330078125	0		1.5098626708984375	-0.48198757934570313	0		3.179626708984375	-0.41478366088867186	0		4.35100048828125	-0.26517156982421874	0		5.8292734375	0.30813442993164064	0		-0.10033312225341796	5.95297998046875	0		
-0.0010447850227355956	-4.317599907517433E-5	0		0.4911412048339844	-2.443829345703125	0		-0.882163330078125	0.3393902893066406	0		-0.680357421875	-2.791494384765625	0		1.503083251953125	-0.48949078369140625	0		3.1509970703125	-0.41481192016601565	0		4.34628076171875	-0.2696864013671875	0		5.82865087890625	0.3085511779785156	0		-0.10199568176269531	5.95435302734375	0		
0.003305938005447388	-0.003801506996154785	0		0.4573695373535156	-2.45478759765625	0		-0.8827332763671875	0.33972222900390625	0		-0.6371823120117187	-2.80607275390625	0		1.5025255126953125	-0.4891237487792969	0		3.140128173828125	-0.42920919799804685	0		4.33472216796875	-0.26904852294921877	0		5.81589697265625	0.300233642578125	0		-0.08648503875732422	5.96236181640625	0		
0.005855663776397705	-5.312560200691223E-4	0		0.4869385986328125	-2.453070068359375	0		-0.9393644409179688	0.3352052001953125	0		-0.7065020141601562	-2.7983173828125	0		1.5020225830078124	-0.4887622985839844	0		3.160453125	-0.4372521667480469	0		4.331173828125	-0.27057107543945313	0		5.82019091796875	0.2915739440917969	0		-0.08515106201171875	5.96065185546875	0		
4.99089002609253E-4	0.0048907790184021	0		0.4844920959472656	-2.454697998046875	0		-0.8737440185546875	0.33913018798828126	0		-0.6092323608398438	-2.815047607421875	0		1.498510498046875	-0.4913458251953125	0		3.1440673828125	-0.4335288391113281	0		4.3296357421875	-0.2741311340332031	0		5.8100986328125	0.3102302551269531	0		-0.08770719146728516	5.96301025390625	0		
0.0019184039831161499	-0.002846549987792969	0		0.47900015258789064	-2.461277099609375	0		-0.8841444091796875	0.3406163024902344	0		-0.651685791015625	-2.819888671875	0		1.48888330078125	-0.501813720703125	0		3.10340380859375	-0.4453084716796875	0		4.31100439453125	-0.28433575439453124	0		5.81513525390625	0.2845708312988281	0		-0.10248697662353516	5.95360302734375	0		
0.0015482009649276734	-0.002563301086425781	0		0.5005564575195313	-2.46843359375	0		-0.8737348022460938	0.33064627075195313	0		-0.6252023315429688	-2.831182861328125	0		1.4885286865234375	-0.5014843444824219	0		3.126814208984375	-0.45642398071289064	0		4.3123525390625	-0.29795721435546874	0		5.80994384765625	0.29413613891601564	0		-0.10304200744628907	5.95388330078125	0		
-0.010820908546447754	-0.00405305004119873	0		0.45723858642578125	-2.47126416015625	0		-0.9450615234375	0.33234613037109373	0		-0.674713134765625	-2.843926513671875	0		1.4882156982421875	-0.5011708984375	0		3.1101513671875	-0.47271878051757815	0		4.3000556640625	-0.29629730224609374	0		5.80958251953125	0.2936004638671875	0		-0.10262160491943359	5.95212060546875	0		
0.003985244035720825	8.737409710884095E-4	0		0.48503378295898436	-2.471586669921875	0		-0.869302001953125	0.3349775695800781	0		-0.6311961059570312	-2.8586201171875	0		1.4879410400390625	-0.5008755798339843	0		3.121976318359375	-0.4676098022460938	0		4.30389599609375	-0.2899775085449219	0		5.80927685546875	0.29406228637695314	0		-0.08892081451416016	5.9630634765625	0		
0.0037245190143585204	0.0010870879888534547	0		0.4740027160644531	-2.465127685546875	0		-0.8695767211914063	0.335154296875	0		-0.6133407592773438	-2.85880419921875	0		1.4846195068359376	-0.5045373229980469	0		3.124466796875	-0.4803247680664062	0		4.3083994140625	-0.301684326171875	0		5.818001953125	0.2943336181640625	0		-0.10365526580810547	5.9525634765625	0		
4.3315500020980836E-4	-0.0016632280349731445	0		0.5055682067871093	-2.480573974609375	0		-0.8749033203125	0.331406005859375	0		-0.6087723999023438	-2.874744140625	0		1.478269287109375	-0.511158447265625	0		3.130318359375	-0.4771209411621094	0		4.2930830078125	-0.30599371337890624	0		5.81294482421875	0.30388360595703123	0		-0.10415346527099609	5.95274609375	0		
-0.0069120187759399414	-0.00835793113708496	0		0.4774892272949219	-2.479815185546875	0		-0.8751221923828125	0.33152447509765626	0		-0.6170214233398438	-2.88344677734375	0		1.4750091552734375	-0.5148653564453125	0		3.104856201171875	-0.4902956848144531	0		4.3007490234375	-0.31279147338867186	0		5.81754150390625	0.2952202453613281	0		-0.104640380859375	5.9529013671875	0		
5.100699886679649E-5	-0.0013701770305633546	0		0.5023261108398438	-2.485169189453125	0		-0.8694215087890625	0.326491943359375	0		-0.6211378784179687	-2.88726220703125	0		1.4339051513671874	-0.5118204040527343	0		3.0975185546875	-0.49886297607421876	0		4.28656787109375	-0.3131575622558594	0		5.808349609375	0.29582723999023436	0		-0.10413697052001954	5.9520087890625	0		
0.002953787088394165	0.0016739350557327271	0		0.47213900756835936	-2.49242333984375	0		-0.865515380859375	0.330470703125	0		-0.6113738403320312	-2.898389892578125	0		1.47472412109375	-0.5144771728515625	0		3.12713525390625	-0.51120751953125	0		4.28814013671875	-0.32686892700195314	0		5.8213369140625	0.30396505737304685	0		-0.0894001235961914	5.96180126953125	0		
0.0028145840167999267	0.0017543070316314697	0		0.5111019592285156	-2.4941123046875	0		-0.8656718139648437	0.33050558471679686	0		-0.6175025024414063	-2.905218017578125	0		1.4746119384765626	-0.5143197631835937	0		3.08833642578125	-0.495172607421875	0		4.28218212890625	-0.3184436950683594	0		5.821181640625	0.3043500366210937	0		-0.10505188751220704	5.95218408203125	0		
-0.0022060589790344237	0.006910355091094971	0		0.47225970458984373	-2.486239501953125	0		-0.8757898559570313	0.331718505859375	0		-0.55983056640625	-2.923369384765625	0		1.4683748779296875	-0.5210637817382813	0		3.08479296875	-0.5168899536132813	0		4.2868310546875	-0.3302630004882813	0		5.82487939453125	0.296630859375	0		-0.10646635437011719	5.95325390625	0		
-0.007619367122650146	-0.007954463005065918	0		0.5039467468261719	-2.502829345703125	0		-0.8799972534179688	0.3277862548828125	0		-0.6337954711914062	-2.9228681640625	0		1.465211181640625	-0.524895751953125	0		3.08060888671875	-0.5216183471679687	0		4.2747607421875	-0.32876876831054686	0		5.82475390625	0.29696127319335935	0		-0.121082275390625	5.9435654296875	0		
-5.785899758338929E-4	-0.0010911459922790527	0		0.487852783203125	-2.50847314453125	0		-0.8760330810546875	0.33166769409179686	0		-0.5622301635742187	-2.947343017578125	0		1.4682176513671874	-0.5208782348632812	0		3.104328125	-0.5319425048828125	0		4.27467724609375	-0.32855096435546877	0		5.8246396484375	0.29725567626953125	0		-0.23871441650390626	5.9329326171875	0		
-6.693599820137024E-4	-0.0011084790229797363	0		0.48891912841796875	-2.50648828125	0		-0.941206787109375	0.3289208068847656	0		-0.6310686645507813	-2.94099658203125	0		1.4302596435546875	-0.5150619506835937	0		3.068450927734375	-0.5220910034179688	0		4.26844140625	-0.33624624633789063	0		5.841833984375	0.31216433715820313	0		-0.10764496612548828	5.95325830078125	0		
0.0023073420524597167	0.0017903499603271484	0		0.513839599609375	-2.512009033203125	0		-0.8762368774414062	0.3315311584472656	0		-0.55848095703125	-2.9645283203125	0		1.4711505126953126	-0.5178641967773437	0		3.101102294921875	-0.5366585083007812	0		4.2803505859375	-0.3373416442871094	0		5.832779296875	0.3145593566894531	0		-0.10798744964599609	5.9532138671875	0		
-8.287230134010315E-4	-0.0012105669975280761	0		0.50978515625	-2.515968994140625	0		-0.87632666015625	0.33143392944335937	0		-0.6005496215820313	-2.969768310546875	0		1.427063720703125	-0.5189828491210937	0		3.09520947265625	-0.5284762573242188	0		4.268310546875	-0.3359899291992188	0		5.83685009765625	0.32265109252929686	0		-0.12250215148925782	5.9434306640625	0		
-0.005818180084228516	0.0028064498901367186	0		0.5067281188964844	-2.5199716796875	0		-0.8804889526367188	0.3274000854492187	0		-0.5408429565429688	-2.987072021484375	0		1.4649044189453124	-0.5247728881835938	0		3.085879638671875	-0.5422608032226562	0		4.28194873046875	-0.3511917419433594	0		5.83194873046875	0.33188333129882813	0		-0.12377271270751954	5.94436328125	0		
-0.005044134140014649	-0.005313916206359863	0		0.4896104431152344	-2.52671484375	0		-0.9415533447265625	0.32848916625976565	0		-0.5870592041015625	-2.99926904296875	0		1.4239046630859375	-0.522005615234375	0		3.05177880859375	-0.5445782470703125	0		4.2709169921875	-0.3499299621582031	0		5.83669091796875	0.3228790283203125	0		-0.24127444458007813	5.93360107421875	0		
